<?xml version="1.0"?>
<svg xmlns="http://www.w3.org/2000/svg" xmlns:xlink="http://www.w3.org/1999/xlink" version="1.1" id="Capa_1" x="0px" y="0px" viewBox="0 0 443.284 443.284" style="enable-background:new 0 0 443.284 443.284;" xml:space="preserve" width="148px" height="128px" class=""><g><script xmlns="" class="active-path" style=""/><script xmlns="" class="active-path"/><g>
	<path d="M439.623,166.017c-4.867-11.751-13.981-20.888-25.662-25.726L386.75,129.02c-3.823-1.587-8.214,0.23-9.799,4.059   c-1.586,3.827,0.231,8.214,4.059,9.799l27.211,11.271c7.979,3.306,14.21,9.559,17.544,17.607c3.334,8.05,3.35,16.877,0.045,24.856   L356.926,362.91c-6.858,16.557-25.906,24.445-42.464,17.59l-41.145-17.043c-3.823-1.587-8.214,0.233-9.799,4.059   c-1.586,3.827,0.231,8.214,4.059,9.799l41.145,17.043c5.822,2.412,11.947,3.617,18.084,3.617c6.174,0,12.359-1.221,18.253-3.662   c11.75-4.867,20.887-13.981,25.725-25.662l68.883-166.298C444.506,190.672,444.49,177.767,439.623,166.017z" data-original="#000000" class="active-path" fill="#E95170"/>
	<path d="M381.009,219.843c0.938,0.39,1.91,0.573,2.867,0.573c2.943,0,5.735-1.744,6.932-4.632l11.904-28.739   c0.762-1.838,0.762-3.902,0-5.74c-0.761-1.838-2.221-3.298-4.059-4.059l-11.904-4.931c-3.823-1.589-8.215,0.232-9.799,4.059   c-1.586,3.827,0.231,8.214,4.059,9.799l4.976,2.062l-9.034,21.81C375.365,213.871,377.182,218.258,381.009,219.843z" data-original="#000000" class="active-path" fill="#E95170"/>
	<path d="M269.345,347.886h44.534c26.191,0,47.5-21.309,47.5-47.5v-180c0-26.191-21.309-47.5-47.5-47.5h-29.452   c-4.143,0-7.5,3.357-7.5,7.5s3.357,7.5,7.5,7.5h29.452c17.921,0,32.5,14.579,32.5,32.5v180c0,17.921-14.579,32.5-32.5,32.5h-44.534   c-4.143,0-7.5,3.357-7.5,7.5S265.203,347.886,269.345,347.886z" data-original="#000000" class="active-path" fill="#E95170"/>
	<path d="M313.881,158.99c4.143,0,7.5-3.357,7.5-7.5v-31.105c0-4.143-3.357-7.5-7.5-7.5h-12.885c-4.143,0-7.5,3.357-7.5,7.5   s3.357,7.5,7.5,7.5h5.385v23.605C306.381,155.633,309.738,158.99,313.881,158.99z" data-original="#000000" class="active-path" fill="#E95170"/>
	<path d="M326.567,240.915L257.683,74.617c-7.374-17.804-24.643-29.308-43.993-29.308c-6.222,0-12.301,1.212-18.067,3.601   L29.324,117.794c-11.681,4.838-20.795,13.974-25.662,25.725s-4.883,24.655-0.044,36.336l68.883,166.299   c7.374,17.803,24.643,29.307,43.994,29.307c6.222,0,12.3-1.211,18.067-3.601l166.298-68.883   C325.058,292.954,336.59,265.113,326.567,240.915z M128.822,358.002c-3.938,1.631-8.086,2.458-12.327,2.458   c-13.263,0-25.092-7.869-30.137-20.047L17.475,174.114c-3.305-7.979-3.289-16.807,0.045-24.855s9.564-14.302,17.544-17.607   l166.299-68.884c3.938-1.631,8.085-2.458,12.327-2.458c13.262,0,25.091,7.869,30.136,20.048l68.884,166.298   c3.305,7.979,3.289,16.807-0.046,24.855c-3.334,8.05-9.564,14.303-17.544,17.608L128.822,358.002z" data-original="#000000" class="active-path" fill="#E95170"/>
	<path d="M220.729,89.924c-0.761-1.838-2.221-3.298-4.059-4.059c-1.838-0.762-3.902-0.762-5.74,0L44.632,154.748   c-1.838,0.761-3.298,2.221-4.059,4.059c-0.762,1.838-0.762,3.902,0,5.74l49.749,120.104c1.196,2.889,3.988,4.632,6.932,4.632   c0.956,0,1.929-0.185,2.867-0.573l166.298-68.883c3.827-1.585,5.645-5.972,4.059-9.799L220.729,89.924z M101.309,271.983   L57.3,165.736l152.441-63.143L253.75,208.84L101.309,271.983z" data-original="#000000" class="active-path" fill="#E95170"/>
</g></g> </svg>
